# xmcd CD database file
#
# Track frame offsets:
#	150
#	9952
#	29401
#	51516
#	77335
#	99724
#	125781
#	146863
#	173991
#	202414
#	231782
#	258410
#	270404
#	297199
#	300553
#	315072
#
# Disc length: 4401 seconds
#
# Revision: 0
# Processed by: cddbd v1.5.2PL0 Copyright (c) Steve Scherf et al.
# Submitted via: CDex 1.70beta2
#
DISCID=e1112f10
DTITLE=まぐなむお～ぱす - 東方紅魔月譚 ～ Scarlet Devil Fantasic Rhapsody ～
DYEAR=2009
DGENRE=東方アレンジ
TTITLE0=赤より紅い夢
TTITLE1=ほおずきみたいに紅い魂
TTITLE2=妖魔夜行
TTITLE3=ルーネイトエルフ
TTITLE4=おてんば恋娘
TTITLE5=上海紅茶館 ～ Chinese Tea
TTITLE6=明治十七年の上海アリス
TTITLE7=ヴワル魔法図書館
TTITLE8=ラクトガール ～ 少女密室
TTITLE9=メイドと血の懐中時計
TTITLE10=月時計 ～ ルナ・ダイアル
TTITLE11=ツェペシュの幼き末裔
TTITLE12=亡き王女の為のセプテット
TTITLE13=魔法少女達の百年祭
TTITLE14=U.N.オーエンは彼女なのか？
TTITLE15=紅より儚い永遠
EXTD=YEAR: 2009
EXTT0=
EXTT1=
EXTT2=
EXTT3=
EXTT4=
EXTT5=
EXTT6=
EXTT7=
EXTT8=
EXTT9=
EXTT10=
EXTT11=
EXTT12=
EXTT13=
EXTT14=
EXTT15=
PLAYORDER=
